<svg xmlns="http://www.w3.org/2000/svg" width="320" height="80" viewBox="0 0 320 80"><g transform="translate(-930 -544)"><rect width="302" height="70" transform="translate(939 549)" fill="#f50000"/><g transform="translate(930 544)" fill="none" stroke="#fff" stroke-linejoin="bevel" stroke-width="1"><path d="M2,0H318a2,2,0,0,1,2,2V77a3,3,0,0,1-3,3H4a4,4,0,0,1-4-4V2A2,2,0,0,1,2,0Z" stroke="none"/><path d="M2,.5H318A1.5,1.5,0,0,1,319.5,2V77a2.5,2.5,0,0,1-2.5,2.5H4A3.5,3.5,0,0,1,.5,76V2A1.5,1.5,0,0,1,2,.5Z" fill="none"/></g><text transform="translate(1014 568)" fill="#fff" font-size="20" font-family="Arial-BoldMT, Arial" font-weight="700"><tspan x="0" y="18">JOGUE GRÁTIS</tspan></text></g></svg>